<svg width="35" height="35" viewBox="0 0 35 35" fill="none" xmlns="http://www.w3.org/2000/svg">
<path d="M29.1667 13.125H16.0417C14.4308 13.125 13.125 14.4308 13.125 16.0417V29.1667C13.125 30.7775 14.4308 32.0833 16.0417 32.0833H29.1667C30.7775 32.0833 32.0833 30.7775 32.0833 29.1667V16.0417C32.0833 14.4308 30.7775 13.125 29.1667 13.125Z" stroke="#25282B" stroke-width="1.3" stroke-linecap="round" stroke-linejoin="round"/>
<path d="M7.29166 21.875H5.83332C5.05978 21.875 4.31791 21.5677 3.77093 21.0207C3.22395 20.4737 2.91666 19.7319 2.91666 18.9583V5.83332C2.91666 5.05978 3.22395 4.31791 3.77093 3.77093C4.31791 3.22395 5.05978 2.91666 5.83332 2.91666H18.9583C19.7319 2.91666 20.4737 3.22395 21.0207 3.77093C21.5677 4.31791 21.875 5.05978 21.875 5.83332V7.29166" stroke="#25282B" stroke-width="1.3" stroke-linecap="round" stroke-linejoin="round"/>
</svg>
