<svg width="32" height="31" viewBox="0 0 32 31" fill="none" xmlns="http://www.w3.org/2000/svg">
<g clip-path="url(#clip0)">
<path d="M16.0155 1.31482V29.2217" stroke="#25282B" stroke-opacity="0.6" stroke-width="1.60231" stroke-linecap="round" stroke-linejoin="round"/>
<path d="M22.3579 6.38867H12.8442C11.6667 6.38867 10.5375 6.85643 9.70485 7.68904C8.87224 8.52165 8.40448 9.65091 8.40448 10.8284C8.40448 12.0059 8.87224 13.1352 9.70485 13.9678C10.5375 14.8004 11.6667 15.2681 12.8442 15.2681H19.1867C20.3642 15.2681 21.4934 15.7359 22.3261 16.5685C23.1587 17.4011 23.6264 18.5304 23.6264 19.7079C23.6264 20.8854 23.1587 22.0146 22.3261 22.8472C21.4934 23.6799 20.3642 24.1476 19.1867 24.1476H8.40448" stroke="#25282B" stroke-opacity="0.6" stroke-width="1.60231" stroke-linecap="round" stroke-linejoin="round"/>
</g>
<defs>
<clipPath id="clip0">
<rect width="30.4439" height="30.4439" fill="white" transform="translate(0.793549 0.0462646)"/>
</clipPath>
</defs>
</svg>
