<svg width="19" height="17" viewBox="0 0 19 17" fill="none" xmlns="http://www.w3.org/2000/svg">
<path d="M1.59941 8.91378C1.45655 8.77092 1.2628 8.69067 1.06077 8.69067C0.85875 8.69067 0.664998 8.77092 0.522145 8.91378C0.379291 9.05663 0.299037 9.25038 0.299037 9.45241V13.3627C0.299037 14.0091 0.555851 14.6291 1.01298 15.0863C1.47011 15.5434 2.09012 15.8002 2.7366 15.8002H16.1432C16.7897 15.8002 17.4097 15.5434 17.8668 15.0863C18.3239 14.6291 18.5808 14.0091 18.5808 13.3627V9.45241C18.5808 9.25038 18.5005 9.05663 18.3576 8.91378C18.2148 8.77092 18.021 8.69067 17.819 8.69067C17.617 8.69067 17.4232 8.77092 17.2804 8.91378C17.1375 9.05663 17.0573 9.25038 17.0573 9.45241V13.3627C17.0573 13.6051 16.961 13.8376 16.7895 14.009C16.6181 14.1804 16.3856 14.2767 16.1432 14.2767H2.7366C2.49417 14.2767 2.26167 14.1804 2.09024 14.009C1.91882 13.8376 1.82251 13.6051 1.82251 13.3627V9.45241C1.82251 9.25038 1.74226 9.05663 1.59941 8.91378Z" fill="black" stroke="black" stroke-width="0.40626"/>
<path d="M5.94462 8.19155L5.94458 8.1916L8.90057 12.2258L9.04439 12.0824L8.90073 12.226L8.90066 12.2259C8.9714 12.2968 9.05543 12.353 9.14793 12.3914C9.24048 12.4298 9.33969 12.4496 9.43988 12.4496C9.54008 12.4496 9.63929 12.4298 9.73183 12.3914C9.82438 12.353 9.90844 12.2967 9.9792 12.2258L12.934 9.26984C13.0061 9.19985 13.0637 9.11628 13.1034 9.02393L12.9167 8.94376L13.1034 9.02393C13.1433 8.931 13.1643 8.83104 13.1652 8.7299C13.166 8.62876 13.1468 8.52845 13.1085 8.43484L12.9205 8.51175L13.1085 8.43484C13.0702 8.34122 13.0136 8.25617 12.9421 8.18465C12.8706 8.11313 12.7855 8.05657 12.6919 8.01827C12.5983 7.97997 12.498 7.96069 12.3968 7.96157C12.2957 7.96245 12.1957 7.98346 12.1028 8.02339C12.0105 8.06306 11.9269 8.12061 11.8569 8.19272L9.43988 10.6097L7.02174 8.19157L7.02172 8.19155C6.87887 8.04875 6.68516 7.96853 6.48317 7.96853C6.28119 7.96853 6.08747 8.04875 5.94462 8.19155ZM5.94458 9.26869L6.08824 9.12508L5.94457 9.26869C5.94458 9.26869 5.94458 9.26869 5.94458 9.26869Z" fill="black" stroke="black" stroke-width="0.40626"/>
<path d="M9.97853 1.09334C9.83567 0.950488 9.64192 0.870234 9.43989 0.870234C9.23787 0.870234 9.04412 0.950488 8.90126 1.09334C8.75841 1.2362 8.67816 1.42995 8.67816 1.63197V10.5697C8.67816 10.7717 8.75841 10.9655 8.90126 11.1083C9.04412 11.2512 9.23787 11.3314 9.43989 11.3314C9.64192 11.3314 9.83567 11.2512 9.97853 11.1083C10.1214 10.9655 10.2016 10.7717 10.2016 10.5697V1.63197C10.2016 1.42995 10.1214 1.2362 9.97853 1.09334Z" fill="black" stroke="black" stroke-width="0.40626"/>
</svg>
