<svg width="32" height="31" viewBox="0 0 32 31" fill="none" xmlns="http://www.w3.org/2000/svg">
<path d="M23.1802 9.81667H16.9802V5.68333H28.3469C28.7578 5.68287 29.1518 5.51942 29.4424 5.22884C29.733 4.93826 29.8964 4.54428 29.8969 4.13333V0H27.8302V3.61667H16.4636C16.0526 3.61713 15.6586 3.78058 15.3681 4.07116C15.0775 4.36174 14.914 4.75572 14.9136 5.16667V9.81667H8.71357C6.52187 9.81915 4.42065 10.6909 2.87089 12.2407C1.32112 13.7904 0.449378 15.8916 0.446899 18.0833V24.6032C0.44866 26.1622 1.06874 27.6568 2.17109 28.7591C3.27345 29.8615 4.76805 30.4816 6.32702 30.4833H6.44327C7.30554 30.4845 8.15746 30.2955 8.93835 29.9298C9.71923 29.5641 10.4099 29.0307 10.9611 28.3676L14.3646 24.2833H17.5052L20.9065 28.705C21.6553 29.6782 22.6899 30.3926 23.8653 30.7479C25.0407 31.1033 26.2978 31.0817 27.4603 30.6863C28.6228 30.2909 29.6324 29.5415 30.3473 28.5432C31.0623 27.5449 31.4468 26.3478 31.4469 25.1199V18.0833C31.4444 15.8916 30.5727 13.7904 29.0229 12.2407C27.4731 10.6909 25.3719 9.81915 23.1802 9.81667ZM29.3802 25.1199C29.3802 25.9163 29.1309 26.6927 28.6672 27.3402C28.2034 27.9876 27.5487 28.4737 26.7947 28.7301C26.0407 28.9866 25.2254 29.0005 24.463 28.77C23.7007 28.5395 23.0297 28.0761 22.5442 27.4449L18.5224 22.2167H13.3962L9.37309 27.0445C9.01565 27.4745 8.5678 27.8204 8.06143 28.0576C7.55506 28.2948 7.00262 28.4174 6.44346 28.4167H6.32721C5.31613 28.4156 4.34677 28.0135 3.63181 27.2986C2.91686 26.5836 2.51469 25.6143 2.51357 24.6032V18.0833C2.51541 16.4396 3.16922 14.8636 4.33154 13.7013C5.49387 12.539 7.06979 11.8852 8.71357 11.8833H23.1802C24.824 11.8852 26.3999 12.539 27.5623 13.7013C28.7246 14.8636 29.3784 16.4396 29.3802 18.0833V25.1199Z" fill="white"/>
<path d="M22.6635 14.9833H24.7302V17.05H22.6635V14.9833Z" fill="white"/>
<path d="M22.6635 20.15H24.7302V22.2166H22.6635V20.15Z" fill="white"/>
<path d="M20.0802 17.5667H22.1469V19.6333H20.0802V17.5667Z" fill="white"/>
<path d="M25.2469 17.5667H27.3136V19.6333H25.2469V17.5667Z" fill="white"/>
<path d="M9.23023 14.9833H7.16356V17.5667H4.58023V19.6333H7.16356V22.2167H9.23023V19.6333H11.8136V17.5667H9.23023V14.9833Z" fill="white"/>
</svg>
