<svg width="1920" height="1079" viewBox="0 0 1920 1079" fill="none" xmlns="http://www.w3.org/2000/svg">
<rect x="-44.7453" y="0.254717" width="219.053" height="215.253" stroke="#AD00FF" stroke-opacity="0.09" stroke-width="0.509434"/>
<rect x="173.801" y="0.254717" width="219.053" height="215.253" stroke="#AD00FF" stroke-opacity="0.09" stroke-width="0.509434"/>
<rect x="393.364" y="0.254717" width="219.053" height="215.253" stroke="#AD00FF" stroke-opacity="0.09" stroke-width="0.509434"/>
<rect x="612.927" y="0.254717" width="219.053" height="215.253" stroke="#AD00FF" stroke-opacity="0.09" stroke-width="0.509434"/>
<rect x="831.473" y="0.254717" width="219.053" height="215.253" stroke="#AD00FF" stroke-opacity="0.09" stroke-width="0.509434"/>
<rect x="1051.04" y="0.254717" width="219.053" height="215.253" stroke="#AD00FF" stroke-opacity="0.09" stroke-width="0.509434"/>
<rect x="1269.58" y="0.254717" width="219.053" height="215.253" stroke="#AD00FF" stroke-opacity="0.09" stroke-width="0.509434"/>
<rect x="1490.16" y="0.254717" width="219.053" height="215.253" stroke="#AD00FF" stroke-opacity="0.09" stroke-width="0.509434"/>
<rect x="1707.69" y="0.254717" width="219.053" height="215.253" stroke="#AD00FF" stroke-opacity="0.09" stroke-width="0.509434"/>
<rect x="-44.7453" y="216.018" width="219.053" height="215.253" stroke="#AD00FF" stroke-opacity="0.09" stroke-width="0.509434"/>
<rect x="173.801" y="216.018" width="219.053" height="215.253" stroke="#AD00FF" stroke-opacity="0.09" stroke-width="0.509434"/>
<rect x="393.364" y="216.018" width="219.053" height="215.253" stroke="#AD00FF" stroke-opacity="0.09" stroke-width="0.509434"/>
<rect x="612.927" y="216.018" width="219.053" height="215.253" stroke="#AD00FF" stroke-opacity="0.09" stroke-width="0.509434"/>
<rect x="831.473" y="216.018" width="219.053" height="215.253" stroke="#AD00FF" stroke-opacity="0.09" stroke-width="0.509434"/>
<rect x="1051.04" y="216.018" width="219.053" height="215.253" stroke="#AD00FF" stroke-opacity="0.09" stroke-width="0.509434"/>
<rect x="1269.58" y="216.018" width="219.053" height="215.253" stroke="#AD00FF" stroke-opacity="0.09" stroke-width="0.509434"/>
<rect x="1490.16" y="216.018" width="219.053" height="215.253" stroke="#AD00FF" stroke-opacity="0.09" stroke-width="0.509434"/>
<rect x="1707.69" y="216.018" width="219.053" height="215.253" stroke="#AD00FF" stroke-opacity="0.09" stroke-width="0.509434"/>
<rect x="-44.7453" y="431.781" width="219.053" height="215.253" stroke="#AD00FF" stroke-opacity="0.09" stroke-width="0.509434"/>
<rect x="173.801" y="431.781" width="219.053" height="215.253" stroke="#AD00FF" stroke-opacity="0.09" stroke-width="0.509434"/>
<rect x="393.364" y="431.781" width="219.053" height="215.253" stroke="#AD00FF" stroke-opacity="0.09" stroke-width="0.509434"/>
<rect x="612.927" y="431.781" width="219.053" height="215.253" stroke="#AD00FF" stroke-opacity="0.09" stroke-width="0.509434"/>
<rect x="831.473" y="431.781" width="219.053" height="215.253" stroke="#AD00FF" stroke-opacity="0.09" stroke-width="0.509434"/>
<rect x="1051.04" y="431.781" width="219.053" height="215.253" stroke="#AD00FF" stroke-opacity="0.09" stroke-width="0.509434"/>
<rect x="1269.58" y="431.781" width="219.053" height="215.253" stroke="#AD00FF" stroke-opacity="0.09" stroke-width="0.509434"/>
<rect x="1490.16" y="431.781" width="219.053" height="215.253" stroke="#AD00FF" stroke-opacity="0.09" stroke-width="0.509434"/>
<rect x="1707.69" y="431.781" width="219.053" height="215.253" stroke="#AD00FF" stroke-opacity="0.09" stroke-width="0.509434"/>
<rect x="-44.7453" y="647.543" width="219.053" height="215.253" stroke="#AD00FF" stroke-opacity="0.09" stroke-width="0.509434"/>
<rect x="173.801" y="647.543" width="219.053" height="215.253" stroke="#AD00FF" stroke-opacity="0.09" stroke-width="0.509434"/>
<rect x="393.364" y="647.543" width="219.053" height="215.253" stroke="#AD00FF" stroke-opacity="0.09" stroke-width="0.509434"/>
<rect x="612.927" y="647.543" width="219.053" height="215.253" stroke="#AD00FF" stroke-opacity="0.09" stroke-width="0.509434"/>
<rect x="831.473" y="647.543" width="219.053" height="215.253" stroke="#AD00FF" stroke-opacity="0.09" stroke-width="0.509434"/>
<rect x="1051.04" y="647.543" width="219.053" height="215.253" stroke="#AD00FF" stroke-opacity="0.09" stroke-width="0.509434"/>
<rect x="1269.58" y="647.543" width="219.053" height="215.253" stroke="#AD00FF" stroke-opacity="0.09" stroke-width="0.509434"/>
<rect x="1490.16" y="647.543" width="219.053" height="215.253" stroke="#AD00FF" stroke-opacity="0.09" stroke-width="0.509434"/>
<rect x="1707.69" y="647.543" width="219.053" height="215.253" stroke="#AD00FF" stroke-opacity="0.09" stroke-width="0.509434"/>
<rect x="-44.7453" y="863.306" width="219.053" height="215.253" stroke="#AD00FF" stroke-opacity="0.09" stroke-width="0.509434"/>
<rect x="173.801" y="863.306" width="219.053" height="215.253" stroke="#AD00FF" stroke-opacity="0.09" stroke-width="0.509434"/>
<rect x="393.364" y="863.306" width="219.053" height="215.253" stroke="#AD00FF" stroke-opacity="0.09" stroke-width="0.509434"/>
<rect x="612.927" y="863.306" width="219.053" height="215.253" stroke="#AD00FF" stroke-opacity="0.09" stroke-width="0.509434"/>
<rect x="831.473" y="863.306" width="219.053" height="215.253" stroke="#AD00FF" stroke-opacity="0.09" stroke-width="0.509434"/>
<rect x="1051.04" y="863.306" width="219.053" height="215.253" stroke="#AD00FF" stroke-opacity="0.09" stroke-width="0.509434"/>
<rect x="1269.58" y="863.306" width="219.053" height="215.253" stroke="#AD00FF" stroke-opacity="0.09" stroke-width="0.509434"/>
<rect x="1490.16" y="863.306" width="219.053" height="215.253" stroke="#AD00FF" stroke-opacity="0.09" stroke-width="0.509434"/>
<rect x="1707.69" y="863.306" width="219.053" height="215.253" stroke="#AD00FF" stroke-opacity="0.09" stroke-width="0.509434"/>
</svg>
