<svg width="118" height="66" viewBox="0 0 118 66" fill="none" xmlns="http://www.w3.org/2000/svg">
<path fill-rule="evenodd" clip-rule="evenodd" d="M64.5143 65.6762C64.5143 65.6762 66.6198 65.4465 67.6981 64.3096C68.6852 63.2679 68.651 61.302 68.651 61.302C68.651 61.302 68.5198 52.1224 72.8618 50.767C77.1411 49.4341 82.6358 59.6442 88.467 63.5703C92.8719 66.5387 96.2154 65.889 96.2154 65.889L111.798 65.6762C111.798 65.6762 119.946 65.1833 116.083 58.8937C115.763 58.3784 113.829 54.2395 104.5 45.7376C94.7262 36.838 96.0385 38.2774 107.804 22.881C114.97 13.5053 117.834 7.7814 116.939 5.33388C116.089 2.99277 110.816 3.61445 110.816 3.61445L93.277 3.72087C93.277 3.72087 91.9761 3.54724 91.0118 4.11292C90.0703 4.66739 89.4598 5.96116 89.4598 5.96116C89.4598 5.96116 86.6868 13.2141 82.9838 19.3861C75.1727 32.4022 72.0516 33.0911 70.7735 32.2846C67.8008 30.3972 68.5426 24.7124 68.5426 20.6743C68.5426 8.05583 70.4939 2.79675 64.7483 1.43577C62.8426 0.982108 61.4389 0.685269 56.5605 0.634863C50.3013 0.573255 45.0064 0.657266 42.0052 2.09665C40.0082 3.05438 38.4676 5.19386 39.4091 5.31708C40.5674 5.4683 43.192 6.01157 44.5842 7.87101C46.3815 10.2737 46.3187 15.6616 46.3187 15.6616C46.3187 15.6616 47.3515 30.5148 43.9052 32.3574C41.543 33.6232 38.3022 31.0412 31.3355 19.2293C27.7694 13.1805 25.0763 6.49323 25.0763 6.49323C25.0763 6.49323 24.5571 5.24427 23.627 4.57218C22.503 3.76007 20.9339 3.50804 20.9339 3.50804L4.26745 3.61445C4.26745 3.61445 1.76263 3.68166 0.844006 4.7514C0.0280853 5.69793 0.781243 7.66378 0.781243 7.66378C0.781243 7.66378 13.8303 37.6333 28.6081 52.7385C42.1593 66.5835 57.5419 65.6762 57.5419 65.6762H64.5143Z" fill="#4E8EF3"/>
</svg>
