<svg width="21" height="20" viewBox="0 0 21 20" fill="none" xmlns="http://www.w3.org/2000/svg">
<path d="M0.534668 9.54042V9.51253C0.785714 6.27683 1.95726 3.85005 3.99352 2.31588C6.00189 0.753813 8.17762 0.000674972 10.5486 0.000674972C13.0312 -0.027219 15.3464 0.809601 17.4105 2.48324C19.5026 4.12899 20.5347 6.58366 20.5347 9.76358V9.95883C20.5347 13.1666 19.5026 15.5655 17.4105 17.2113C15.3185 18.8849 13.0033 19.7217 10.5207 19.7217H10.4091C7.98237 19.6938 5.75085 18.857 3.68669 17.1834C1.62253 15.5376 0.562562 12.9993 0.534668 9.54042ZM9.93495 5.16107V0.753813H9.26549C9.12602 0.921177 9.01445 1.11644 8.90287 1.2838C8.79129 1.45116 8.67972 1.61853 8.56814 1.81379C8.45656 1.98115 8.31709 2.2043 8.23341 2.37167C8.12184 2.53903 8.03816 2.70639 7.95447 2.90165C7.78711 3.18059 7.64764 3.45953 7.53606 3.71058C7.39659 3.96162 7.28502 4.21267 7.20133 4.43582C7.3687 4.5474 7.56396 4.68687 7.78711 4.77055C8.03816 4.85423 8.2892 4.93791 8.54025 4.9937C8.81919 5.04949 9.07023 5.07738 9.29338 5.10528C9.54443 5.13317 9.76758 5.16107 9.93495 5.16107ZM11.1065 0.753813V5.13317C11.246 5.13317 11.4133 5.16107 11.5807 5.13317C11.7481 5.13317 11.9433 5.10528 12.1107 5.07738C12.4175 5.0216 12.7801 4.93791 13.0591 4.85423C13.3659 4.74266 13.6448 4.60319 13.8401 4.43582C13.5054 3.6269 13.1428 2.98533 12.7801 2.37167C12.4175 1.758 11.9991 1.22801 11.5528 0.781707V0.753813H11.1065ZM8.09394 1.00486V0.976965C7.89868 1.06065 7.70343 1.20012 7.48027 1.2838C7.28502 1.36748 7.03397 1.47906 6.83871 1.59063C6.4482 1.78589 6.05768 2.00904 5.66716 2.26009C5.30454 2.51114 4.94192 2.79008 4.63509 3.06902C4.74666 3.18059 4.88613 3.29217 4.99771 3.37585C5.10928 3.45953 5.24875 3.57111 5.38822 3.68268C5.4998 3.73847 5.63927 3.82215 5.77874 3.93373C5.91821 4.01741 6.08557 4.12899 6.25294 4.24056C6.47609 3.73847 6.69924 3.20849 6.97818 2.73429C7.25712 2.2322 7.56396 1.758 7.87079 1.33959C7.89868 1.2838 7.92658 1.22801 7.98237 1.17222C8.01026 1.14433 8.03816 1.06065 8.09394 1.00486ZM16.6295 3.06902V3.04112C15.9322 2.51114 15.3185 2.06483 14.7048 1.78589C14.0912 1.50695 13.4775 1.22801 12.9196 1.00486C13.3659 1.45116 13.7564 2.00904 14.0075 2.53903C14.2864 3.09691 14.5654 3.68268 14.7885 4.24056C14.9001 4.18478 15.0395 4.12899 15.2069 4.01741C15.3464 3.93373 15.5416 3.85005 15.709 3.76637C15.8764 3.65479 16.0158 3.54321 16.1832 3.43164C16.3506 3.29217 16.5179 3.18059 16.6295 3.06902ZM16.1553 9.28938H19.3631C19.3631 8.2573 19.14 7.28101 18.7216 6.27683C18.331 5.30054 17.7732 4.49161 17.0758 3.79426V3.76637C16.9363 3.98952 16.7411 4.18478 16.5458 4.32425C16.3227 4.46372 16.1274 4.57529 15.9043 4.68687C15.7648 4.77055 15.6253 4.88213 15.4859 4.93791C15.3464 5.0216 15.1511 5.07738 15.0117 5.16107C15.1232 5.38422 15.2348 5.63526 15.3464 5.85842C15.4301 6.10946 15.5695 6.3884 15.6253 6.63945C15.7927 7.08575 15.9043 7.55995 16.0158 8.03415C16.0995 8.45256 16.1553 8.89886 16.1553 9.28938ZM6.05768 5.16107V5.13317C5.83453 5.0216 5.58348 4.93791 5.38822 4.82634C5.19297 4.68687 4.99771 4.5474 4.83034 4.43582C4.66298 4.35214 4.49562 4.24056 4.35615 4.12899C4.21668 4.01741 4.1051 3.90584 3.99352 3.79426C3.26828 4.49161 2.73829 5.27264 2.40357 6.19314C2.04094 7.11365 1.7899 8.14572 1.67832 9.26148H5.10928C5.10928 8.48045 5.22086 7.72731 5.41612 6.97418C5.58348 6.19314 5.83453 5.60737 6.05768 5.16107ZM9.93495 9.26148V6.05367C9.71179 6.08157 9.43285 6.08157 9.18181 6.05367C8.90287 6.02578 8.62393 5.9421 8.37288 5.85842C8.14973 5.80263 7.87079 5.74684 7.64764 5.66316C7.39659 5.60737 7.14555 5.49579 6.95029 5.38422C6.78292 5.66316 6.64345 5.99789 6.53188 6.36051C6.39241 6.69524 6.30873 7.05786 6.22504 7.39259C6.16926 7.72731 6.14136 8.08994 6.11347 8.39677C6.08557 8.7036 6.05768 9.01044 6.05768 9.26148H9.93495ZM11.1065 6.10946V9.26148H15.2348C15.2348 9.09412 15.2348 8.89886 15.2069 8.67571C15.1511 8.48045 15.1232 8.22941 15.0953 8.00625C15.0117 7.67153 14.928 7.3089 14.8164 6.97418C14.7048 6.66734 14.5932 6.36051 14.4538 6.10946C14.398 5.96999 14.3422 5.80263 14.2864 5.69105C14.2027 5.55158 14.119 5.4679 14.0633 5.38422C13.7564 5.60737 13.338 5.74684 12.8359 5.85842C12.3617 5.96999 11.8038 6.08157 11.3018 6.10946H11.1065ZM5.10928 10.182H1.67832C1.67832 10.6562 1.762 11.1862 1.90147 11.8277C2.04094 12.4972 2.31988 13.1109 2.62672 13.7803C2.76619 14.115 2.93355 14.4498 3.10092 14.7845C3.29617 15.0913 3.51933 15.4261 3.74248 15.7329C3.90984 15.6213 4.07721 15.5376 4.21668 15.454C4.38404 15.3703 4.5793 15.2587 4.74666 15.175C4.94192 15.0913 5.13718 15.0076 5.36033 14.8961C5.55559 14.8124 5.80663 14.7008 6.05768 14.5892C5.83453 13.8919 5.58348 13.2224 5.41612 12.4693C5.22086 11.7441 5.10928 11.0188 5.10928 10.2099V10.182ZM9.93495 13.4456V10.182H6.05768C6.05768 10.4051 6.08557 10.7399 6.14136 11.0746C6.16926 11.4093 6.25294 11.7719 6.30873 12.1346C6.4203 12.5251 6.50398 12.9156 6.61556 13.2503C6.72714 13.5851 6.83871 13.864 6.95029 14.115C7.45238 13.9198 7.95447 13.7803 8.2892 13.6966C8.65182 13.5851 8.98655 13.5014 9.32128 13.4735H9.62811C9.73969 13.4456 9.85126 13.4456 9.93495 13.4456ZM11.1065 10.182V13.4177C11.3018 13.4456 11.5249 13.4735 11.7481 13.5014C11.9991 13.5293 12.3059 13.5851 12.557 13.6408L12.9754 13.7245C13.1149 13.7803 13.2822 13.8082 13.4217 13.8361C13.5891 13.8919 13.7564 13.9198 13.9238 13.9756C14.0633 14.0314 14.2027 14.0593 14.3143 14.115C14.6769 13.1945 14.9001 12.4414 15.0395 11.7998C15.179 11.1862 15.2348 10.6562 15.2348 10.2099V10.182H11.1065ZM19.3631 10.2099V10.182H16.1553V10.3493C16.1274 10.8793 16.0437 11.493 15.9322 12.1346C15.8206 12.7482 15.5695 13.4735 15.2348 14.3661C15.6811 14.5892 16.0995 14.8124 16.4342 15.0355C16.769 15.2587 17.0758 15.5097 17.299 15.7329C17.7732 15.2587 18.1916 14.6171 18.5542 13.7803C18.9168 12.9714 19.1679 12.1346 19.3073 11.242C19.3352 11.0746 19.3352 10.9072 19.3631 10.7399V10.2099ZM9.93495 18.6897V14.3382C9.2376 14.4498 8.65182 14.5892 8.20552 14.7008C7.75921 14.8124 7.42449 14.924 7.20133 15.0355C7.3687 15.454 7.53606 15.8166 7.70343 16.1513C7.87079 16.4581 8.06605 16.7929 8.23341 17.0718C8.2892 17.1834 8.40078 17.295 8.48446 17.4344C8.56814 17.546 8.62393 17.6855 8.70761 17.797C8.79129 17.9365 8.87498 18.1039 8.95866 18.2712C9.07023 18.4107 9.15392 18.5781 9.26549 18.6897H9.93495ZM11.1065 18.6897H11.7481C11.9991 18.4944 12.2501 18.2155 12.4454 17.9086C12.6686 17.6018 12.9196 17.2392 13.087 16.9323C13.2822 16.5697 13.4775 16.235 13.6448 15.9003C13.8122 15.5655 13.9517 15.2587 14.0633 15.0355C13.7564 14.924 13.338 14.8124 12.9196 14.7008C12.5012 14.5892 11.9154 14.4777 11.1065 14.3661V18.6897ZM16.6295 16.4023V16.3745C16.5737 16.2908 16.4621 16.1792 16.3785 16.0955C16.2948 16.0118 16.1553 15.9003 16.0158 15.8166C15.9043 15.7329 15.7648 15.6492 15.5974 15.5655C15.4301 15.4818 15.2069 15.3703 15.0117 15.2587C14.9001 15.4818 14.7048 15.8724 14.4259 16.4023C14.1748 16.9323 13.7285 17.5739 13.1707 18.2712C13.868 18.1597 14.4817 17.9086 15.0395 17.5739C15.6532 17.2671 16.1832 16.8487 16.6295 16.4023ZM6.25294 15.5097V15.4818C6.05768 15.5934 5.75085 15.7329 5.44401 15.8724C5.10928 16.0118 4.74666 16.1792 4.41193 16.4023C4.60719 16.5697 4.80245 16.7371 4.96981 16.8487C5.13718 16.9881 5.33244 17.0997 5.4998 17.2113C5.80663 17.4065 6.16926 17.6018 6.53188 17.7692C6.8945 17.9365 7.3408 18.1039 7.89868 18.2712C7.70343 18.0481 7.56396 17.7692 7.42449 17.546C7.28502 17.3228 7.11765 17.0997 6.97818 16.8765C6.83871 16.6534 6.72714 16.4023 6.61556 16.1792C6.47609 15.956 6.36451 15.7329 6.25294 15.5097Z" fill="black"/>
</svg>
