<svg width="52" height="35" viewBox="0 0 52 35" fill="none" xmlns="http://www.w3.org/2000/svg">
<path d="M47.6666 0H4.33333C1.94007 0 0 1.94007 0 4.33333V30.3333C0 32.7266 1.94007 34.6666 4.33333 34.6666H47.6666C50.0599 34.6666 51.9999 32.7266 51.9999 30.3333V4.33333C51.9999 1.94007 50.0599 0 47.6666 0ZM48.3888 30.3333C48.3888 30.7315 48.0648 31.0555 47.6666 31.0555H4.33333C3.93511 31.0555 3.61111 30.7315 3.61111 30.3333V4.33333C3.61111 3.93511 3.93511 3.61111 4.33333 3.61111H47.6666C48.0648 3.61111 48.3888 3.93511 48.3888 4.33333V30.3333ZM15.3472 18.5972V16.0694C15.3472 15.4712 14.8621 14.9861 14.2639 14.9861H11.7361C11.1378 14.9861 10.6528 15.4712 10.6528 16.0694V18.5972C10.6528 19.1955 11.1378 19.6805 11.7361 19.6805H14.2639C14.8621 19.6805 15.3472 19.1955 15.3472 18.5972ZM24.0139 18.5972V16.0694C24.0139 15.4712 23.5288 14.9861 22.9305 14.9861H20.4028C19.8045 14.9861 19.3194 15.4712 19.3194 16.0694V18.5972C19.3194 19.1955 19.8045 19.6805 20.4028 19.6805H22.9305C23.5288 19.6805 24.0139 19.1955 24.0139 18.5972ZM32.6805 18.5972V16.0694C32.6805 15.4712 32.1955 14.9861 31.5972 14.9861H29.0694C28.4711 14.9861 27.9861 15.4712 27.9861 16.0694V18.5972C27.9861 19.1955 28.4711 19.6805 29.0694 19.6805H31.5972C32.1955 19.6805 32.6805 19.1955 32.6805 18.5972ZM41.3472 18.5972V16.0694C41.3472 15.4712 40.8621 14.9861 40.2638 14.9861H37.7361C37.1378 14.9861 36.6527 15.4712 36.6527 16.0694V18.5972C36.6527 19.1955 37.1378 19.6805 37.7361 19.6805H40.2638C40.8621 19.6805 41.3472 19.1955 41.3472 18.5972ZM11.0139 26V23.4722C11.0139 22.8739 10.5288 22.3889 9.93054 22.3889H7.40277C6.8045 22.3889 6.31944 22.8739 6.31944 23.4722V26C6.31944 26.5982 6.8045 27.0833 7.40277 27.0833H9.93054C10.5288 27.0833 11.0139 26.5982 11.0139 26ZM45.6805 26V23.4722C45.6805 22.8739 45.1954 22.3889 44.5972 22.3889H42.0694C41.4711 22.3889 40.9861 22.8739 40.9861 23.4722V26C40.9861 26.5982 41.4711 27.0833 42.0694 27.0833H44.5972C45.1954 27.0833 45.6805 26.5982 45.6805 26ZM11.0139 11.1944V8.66666C11.0139 8.06839 10.5288 7.58332 9.93054 7.58332H7.40277C6.8045 7.58332 6.31944 8.06839 6.31944 8.66666V11.1944C6.31944 11.7927 6.8045 12.2778 7.40277 12.2778H9.93054C10.5288 12.2778 11.0139 11.7927 11.0139 11.1944ZM19.6805 11.1944V8.66666C19.6805 8.06839 19.1955 7.58332 18.5972 7.58332H16.0694C15.4712 7.58332 14.9861 8.06839 14.9861 8.66666V11.1944C14.9861 11.7927 15.4712 12.2778 16.0694 12.2778H18.5972C19.1955 12.2778 19.6805 11.7927 19.6805 11.1944ZM28.3472 11.1944V8.66666C28.3472 8.06839 27.8621 7.58332 27.2639 7.58332H24.7361C24.1378 7.58332 23.6528 8.06839 23.6528 8.66666V11.1944C23.6528 11.7927 24.1378 12.2778 24.7361 12.2778H27.2639C27.8621 12.2778 28.3472 11.7927 28.3472 11.1944ZM37.0138 11.1944V8.66666C37.0138 8.06839 36.5288 7.58332 35.9305 7.58332H33.4027C32.8045 7.58332 32.3194 8.06839 32.3194 8.66666V11.1944C32.3194 11.7927 32.8045 12.2778 33.4027 12.2778H35.9305C36.5288 12.2778 37.0138 11.7927 37.0138 11.1944ZM45.6805 11.1944V8.66666C45.6805 8.06839 45.1954 7.58332 44.5972 7.58332H42.0694C41.4711 7.58332 40.9861 8.06839 40.9861 8.66666V11.1944C40.9861 11.7927 41.4711 12.2778 42.0694 12.2778H44.5972C45.1954 12.2778 45.6805 11.7927 45.6805 11.1944ZM36.8333 25.4583V24.0139C36.8333 23.4156 36.3482 22.9305 35.75 22.9305H16.25C15.6517 22.9305 15.1666 23.4156 15.1666 24.0139V25.4583C15.1666 26.0566 15.6517 26.5416 16.25 26.5416H35.75C36.3482 26.5416 36.8333 26.0566 36.8333 25.4583Z" fill="url(#paint0_linear)"/>
<defs>
<linearGradient id="paint0_linear" x1="4.25454" y1="-0.105062" x2="47.4302" y2="29.9919" gradientUnits="userSpaceOnUse">
<stop stop-color="#AD58F9"/>
<stop offset="0.651042" stop-color="#4E8EF3"/>
</linearGradient>
</defs>
</svg>
