<svg width="31" height="43" viewBox="0 0 31 43" fill="none" xmlns="http://www.w3.org/2000/svg">
<path d="M15.5005 26.8099C19.2093 26.8099 22.1807 23.8162 22.1807 20.1075L22.203 6.70248C22.203 2.99378 19.2093 0 15.5005 0C11.7918 0 8.79806 2.99378 8.79806 6.70248V20.1075C8.79806 23.8162 11.7918 26.8099 15.5005 26.8099ZM29.0842 20.1075C28.1459 20.1075 27.3639 20.7777 27.2299 21.6937C26.4033 27.5249 21.153 31.5017 15.5005 31.5017C9.84812 31.5017 4.59784 27.5472 3.7712 21.6937C3.70238 21.2515 3.4776 20.8484 3.13749 20.5575C2.79739 20.2666 2.36441 20.1069 1.91684 20.1075C0.755079 20.1075 -0.138585 21.1352 0.0178064 22.2746C1.04552 28.91 6.63092 34.1156 13.2664 35.121V40.2149C13.2664 41.4437 14.2718 42.4491 15.5005 42.4491C16.7293 42.4491 17.7347 41.4437 17.7347 40.2149V35.121C24.3478 34.1603 29.9556 28.91 30.9833 22.2746C31.0193 22.0041 30.997 21.7291 30.918 21.4679C30.8391 21.2067 30.7052 20.9655 30.5253 20.7603C30.3455 20.555 30.1239 20.3906 29.8754 20.278C29.6268 20.1655 29.3571 20.1073 29.0842 20.1075Z" fill="url(#paint0_linear)"/>
<defs>
<linearGradient id="paint0_linear" x1="43.8731" y1="35.2552" x2="-0.0469572" y2="0.0434436" gradientUnits="userSpaceOnUse">
<stop stop-color="#4E8EF3"/>
<stop offset="1" stop-color="#AD58F9"/>
</linearGradient>
</defs>
</svg>
