<svg width="113" height="82" viewBox="0 0 113 82" fill="none" xmlns="http://www.w3.org/2000/svg">
<path fill-rule="evenodd" clip-rule="evenodd" d="M110.569 13.4832C109.272 8.49941 105.449 4.57486 100.595 3.24291C91.799 0.822266 56.5229 0.822266 56.5229 0.822266C56.5229 0.822266 21.2468 0.822266 12.4497 3.24291C7.59578 4.57486 3.77314 8.49941 2.47585 13.4832C0.119064 22.5159 0.119064 41.3625 0.119064 41.3625C0.119064 41.3625 0.119064 60.2085 2.47585 69.2418C3.77314 74.2256 7.59578 78.1502 12.4497 79.4828C21.2468 81.9028 56.5229 81.9028 56.5229 81.9028C56.5229 81.9028 91.799 81.9028 100.595 79.4828C105.449 78.1502 109.272 74.2256 110.569 69.2418C112.927 60.2085 112.927 41.3625 112.927 41.3625C112.927 41.3625 112.927 22.5159 110.569 13.4832Z" fill="#FF0000"/>
<path fill-rule="evenodd" clip-rule="evenodd" d="M45.9471 60.7514V25.499L74.1491 43.1259L45.9471 60.7514Z" fill="white"/>
</svg>
